# xmcd
# 
# Track frame offsets:
#     150
#     21556
#     38989
#     54820
#     74668
#     93425
#     110490
#     125522
#     148178
#     165309
#     181767
#     196248
# 
# Disc length: 2945
# 
# Revision: 1
# Processed by: cddbd v1.5.2PL0 Copyright (c) Steve Scherf et al.
# Submitted via: fre:ac v1.0.31
# 
DISCID=a70b7f0c
DTITLE=Various Artist - The NYC Series - Jazz and the ´70s
DYEAR=2008
DGENRE=Jazz
TTITLE0=Stella Starlight Trio - Time
TTITLE1=Cassandra Beck - Da Ya Think I´m Sexy?
TTITLE2=Renauld feat. Karen Souza - Wake Up and Make Love With Me
TTITLE3=The Cooltrane Quartet - Smoke on the Water
TTITLE4=Karen Souza - Have You Ever Seen The Rain
TTITLE5=Eve St. Jones feat. Massey - Last Train to London
TTITLE6=Jazzystics feat. Cassandra Beck - Don´t Stop
TTITLE7=Apollinare Rossi - Just the Way You Are
TTITLE8=Anakelly - Show me the Way
TTITLE9=Nu Men 4 Soul - You´ve Got a Friend
TTITLE10=Jazz and the ´70s - Breakfast in America
TTITLE11=The Bryan J. White Quartet - Stairway to Haven
EXTD=YEAR: 2008
EXTT0=
EXTT1=
EXTT2=
EXTT3=
EXTT4=
EXTT5=
EXTT6=
EXTT7=
EXTT8=
EXTT9=
EXTT10=
EXTT11=
PLAYORDER=
